<?xml version="1.0" encoding="utf-8"?>
<!-- Generator: Adobe Illustrator 22.0.1, SVG Export Plug-In . SVG Version: 6.00 Build 0)  -->
<svg version="1.1" xmlns="http://www.w3.org/2000/svg" xmlns:xlink="http://www.w3.org/1999/xlink" x="0px" y="0px"
	 viewBox="0 0 648.2 1058" style="enable-background:new 0 0 648.2 1058;" xml:space="preserve">
<style type="text/css">
	.st0{fill:#1C7770;}
	.st1{fill:#C3DCC9;}
	.st2{fill:#CE5F47;}
	.st3{fill:#FFFFFF;}
	.st4{fill:#FCEFA5;}
	.st5{display:none;fill:#1C7770;}
	.st6{display:none;fill:#C3DCC9;}
</style>
<g id="G_V2">
	<polygon class="st0" points="537.6,377.9 5.7,70.3 5.7,761.2 515.4,1055.5 515.4,697 360.3,607.4 360.3,710 427.3,749.5 
		426.8,901.2 94.3,710 94.3,223.7 537.6,479.7 	"/>
	<polygon class="st1" points="537.6,479.7 626.2,428.5 626.2,326.2 94.3,19.1 5.7,70.3 537.6,377.9 	"/>
	<polygon class="st1" points="183,275 94.3,223.7 94.3,710 426.8,901.2 427.3,799 183,658.7 	"/>
	<polygon class="st1" points="360.3,607.4 448.9,556.2 604,645.8 604,1004.3 515.4,1055.5 515.4,697 	"/>
</g>
<g id="Layer_3">
	<g id="P">
		<polygon class="st2" points="293.8,1029.9 382.4,978.7 382.4,594.9 648.4,441.3 648.4,57.5 293.8,262.2 		"/>
		<polygon class="st3" points="382.4,492.5 559.7,390.1 559.7,211 382.4,313.4 		"/>
		<polygon class="st4" points="648.4,57.5 559.7,6.3 205.2,211 205.2,978.7 293.8,1029.9 293.8,262.2 		"/>
		<polygon class="st4" points="559.7,211 559.7,390.1 382.4,492.5 382.4,388.7 471.1,339 471.1,262.2 		"/>
	</g>
</g>
<g id="G_Overlay">
	<polygon class="st0" points="404.5,300.6 537.6,377.9 537.6,480.3 382.4,388.7 382.4,313.4 	"/>
	<polygon class="st1" points="493.2,249.4 626.2,326.2 626.2,428.5 537.6,480.3 537.6,377.9 404.5,300.6 	"/>
	<polygon class="st5" points="360.3,607.4 382.4,620.4 382.4,722.8 360.3,710 	"/>
	<polygon class="st6" points="382.4,594.9 382.4,620.4 360.3,607.4 	"/>
	<path class="st1" d="M383.2,619.5"/>
	<polygon class="st0" points="382.4,875.7 205.2,773.6 205.2,876.3 382.4,978.7 382.4,953.1 	"/>
	<polygon class="st1" points="382.4,773.6 382.4,875.7 205.2,773.6 205.2,671.6 	"/>
</g>
</svg>
